<?xml version="1.0" encoding="UTF-8" standalone="no" ?>
<!DOCTYPE svg PUBLIC "-//W3C//DTD SVG 1.1//EN" "http://www.w3.org/Graphics/SVG/1.1/DTD/svg11.dtd">
<svg xmlns="http://www.w3.org/2000/svg" xmlns:xlink="http://www.w3.org/1999/xlink" version="1.1" width="224.2843000793457" height="201.51224000000002" xml:space="preserve">
<desc>Created with Fabric.js 1.6.0-rc.1</desc>
<defs/>
<g style="stroke: none; stroke-width: 1; stroke-dasharray: none; stroke-linecap: butt; stroke-linejoin: miter; stroke-miterlimit: 10; fill: none; fill-rule: nonzero; opacity: 1;" transform="translate(45 10) scale(2.03 2.03)" >
  <path d="M 33.224 10.494 H 13.776 C 6.168 10.494 0 16.661 0 24.27 v 11.345 c 0 6.929 5.306 12.732 12 13.716 v -3.992 c 0 -0.552 0.447 -1 1 -1 s 1 0.448 1 1 v 4.155 v 7.446 c 0 0.503 0.384 0.755 0.74 0.399 l 1.521 -1.521 c 4.116 -4.116 9.699 -6.325 15.52 -6.325 h 1.443 C 40.832 49.494 47 43.223 47 35.615 V 24.27 C 47 16.661 40.832 10.494 33.224 10.494 z" style="stroke: none; stroke-width: 1; stroke-dasharray: none; stroke-linecap: butt; stroke-linejoin: miter; stroke-miterlimit: 10; fill: #EBBA16; fill-rule: nonzero; opacity: 1;" transform=" matrix(1 0 0 1 0 0) " stroke-linecap="round" />
  <path d="M 44.224 0.494 H 24.776 c -6.371 0 -11.717 4.332 -13.292 10.206 c 0.747 -0.125 1.509 -0.206 2.292 -0.206 h 19.448 C 40.832 10.494 47 16.661 47 24.27 v 11.345 c 0 1.259 -0.183 2.476 -0.5 3.639 C 52.957 38.061 58 32.37 58 25.615 V 14.27 C 58 6.661 51.832 0.494 44.224 0.494 z" style="stroke: none; stroke-width: 1; stroke-dasharray: none; stroke-linecap: butt; stroke-linejoin: miter; stroke-miterlimit: 10; fill: #0b6073; fill-rule: nonzero; opacity: 1;" transform=" matrix(1 0 0 1 0 0) " stroke-linecap="round" />
</g>
  <g transform="translate(112.68 164) scale(1.07 1.07)">
   <text font-family="Amerika Sans" font-size="40" font-weight="normal" style="stroke: none; stroke-width: 1; stroke-dasharray: none; stroke-linecap: butt; stroke-linejoin: miter; stroke-miterlimit: 10; fill: #096170; fill-rule: nonzero; opacity: 1;" ><tspan x="-95.46" y="8.98" style="stroke: none; stroke-width: 0; stroke-dasharray: none; stroke-linecap: butt; stroke-linejoin: miter; stroke-miterlimit: 4; fill: #096170; fill-rule: ; opacity: 1;">S</tspan><tspan x="-72.02" y="8.98" style="stroke: none; stroke-width: 0; stroke-dasharray: none; stroke-linecap: butt; stroke-linejoin: miter; stroke-miterlimit: 4; fill: #096170; fill-rule: ; opacity: 1;">e</tspan><tspan x="-49.3" y="8.98" style="stroke: none; stroke-width: 0; stroke-dasharray: none; stroke-linecap: butt; stroke-linejoin: miter; stroke-miterlimit: 4; fill: #096170; fill-rule: ; opacity: 1;">r</tspan><tspan x="-33.54" y="8.98" style="stroke: none; stroke-width: 0; stroke-dasharray: none; stroke-linecap: butt; stroke-linejoin: miter; stroke-miterlimit: 4; fill: #096170; fill-rule: ; opacity: 1;">v</tspan><tspan x="-13.54" y="8.98" style="stroke: none; stroke-width: 0; stroke-dasharray: none; stroke-linecap: butt; stroke-linejoin: miter; stroke-miterlimit: 4; fill: #096170; fill-rule: ; opacity: 1;">i</tspan><tspan x="-4.18" y="8.98" style="stroke: none; stroke-width: 0; stroke-dasharray: none; stroke-linecap: butt; stroke-linejoin: miter; stroke-miterlimit: 4; fill: #096170; fill-rule: ; opacity: 1;">z</tspan><tspan x="17.42" y="8.98" style="stroke: none; stroke-width: 0; stroke-dasharray: none; stroke-linecap: butt; stroke-linejoin: miter; stroke-miterlimit: 4; fill: #096170; fill-rule: ; opacity: 1;">z</tspan><tspan x="39.02" y="8.98" style="stroke: none; stroke-width: 0; stroke-dasharray: none; stroke-linecap: butt; stroke-linejoin: miter; stroke-miterlimit: 4; fill: #096170; fill-rule: ; opacity: 1;">i</tspan><tspan x="48.38" y="8.98" style="stroke: none; stroke-width: 0; stroke-dasharray: none; stroke-linecap: butt; stroke-linejoin: miter; stroke-miterlimit: 4; fill: #096170; fill-rule: ; opacity: 1;">o</tspan><tspan x="72.18" y="8.98" style="stroke: none; stroke-width: 0; stroke-dasharray: none; stroke-linecap: butt; stroke-linejoin: miter; stroke-miterlimit: 4; fill: #096170; fill-rule: ; opacity: 1;">n</tspan></text>
 </g>
<g style="stroke: none; stroke-width: 1; stroke-dasharray: none; stroke-linecap: butt; stroke-linejoin: miter; stroke-miterlimit: 10; fill: none; fill-rule: nonzero; opacity: 1;" transform="translate(74.8599999999999 39.379999999999995) scale(1.03 1.03)" >
  <path d="M 45 26 H 13 C 5.85 26 0 20.15 0 13 v 0 C 0 5.85 5.85 0 13 0 h 32 c 7.15 0 13 5.85 13 13 v 0 C 58 20.15 52.15 26 45 26 z" style="stroke: none; stroke-width: 1; stroke-dasharray: none; stroke-linecap: butt; stroke-linejoin: miter; stroke-miterlimit: 10; fill: #E7ECED; fill-rule: nonzero; opacity: 1;" transform=" matrix(1 0 0 1 0 0) " stroke-linecap="round" />
  <path d="M 13 58 h 32 c 7.15 0 13 -5.85 13 -13 v 0 c 0 -7.15 -5.85 -13 -13 -13 H 13 C 5.85 32 0 37.85 0 45 v 0 C 0 52.15 5.85 58 13 58 z" style="stroke: none; stroke-width: 1; stroke-dasharray: none; stroke-linecap: butt; stroke-linejoin: miter; stroke-miterlimit: 10; fill: #E7ECED; fill-rule: nonzero; opacity: 1;" transform=" matrix(1 0 0 1 0 0) " stroke-linecap="round" />
  <circle cx="45" cy="13" r="9" style="stroke: #659C35; stroke-width: 2; stroke-dasharray: none; stroke-linecap: round; stroke-linejoin: miter; stroke-miterlimit: 10; fill: #88C057; fill-rule: nonzero; opacity: 1;" transform="  matrix(1 0 0 1 0 0) "/>
  <circle cx="13" cy="45" r="9" style="stroke: #D75A4A; stroke-width: 2; stroke-dasharray: none; stroke-linecap: round; stroke-linejoin: miter; stroke-miterlimit: 10; fill: #ED7161; fill-rule: nonzero; opacity: 1;" transform="  matrix(1 0 0 1 0 0) "/>
</g>
</svg>